<svg xmlns="http://www.w3.org/2000/svg" width="1440" height="1024" viewBox="0 0 1440 1024">
<style>
.bg { fill: #0f1115; }
.panel { fill: #171b22; stroke: #3b4657; stroke-width: 1.5; }
.text { fill: #eef3fb; font-family: Inter, Arial, sans-serif; }
.muted { fill: #97a6ba; font-family: Inter, Arial, sans-serif; }
.title { font-size: 30px; font-weight: 700; }
.label { font-size: 15px; font-weight: 600; }
.small { font-size: 12px; }
.stroke { stroke: #3b4657; stroke-width: 1.5; fill: none; }
.line { stroke: #8fb8ff; stroke-width: 4; fill: none; stroke-linecap: round; stroke-linejoin: round; }
.line2 { stroke: #b7ffd4; stroke-width: 4; fill: none; stroke-linecap: round; stroke-linejoin: round; }
.button { fill: #1f2632; stroke: #3b4657; stroke-width: 1.2; }
.buttonActive { fill: #22354d; stroke: #8fb8ff; stroke-width: 1.6; }
.node { fill: #2a313d; stroke: #3b4657; stroke-width: 1.3; }
.nodeActive { fill: #22354d; stroke: #8fb8ff; stroke-width: 2; }
.ring { fill: none; stroke: #3b4657; stroke-width: 1.4; }
</style>
<rect class="bg" x="0" y="0" width="1440" height="1024"/>
<text class="text title" x="56" y="68">DrawnCurve / Micro-design 2B</text>
<text class="muted label" x="56" y="96">Scale quantizer concept</text>
<rect class="panel" x="56" y="132" width="1328" height="836" rx="28"/>
<text class="muted small" x="88" y="170">2B · CIRCULAR PITCH RING — cyclic pitch-class selector, tonic at 12 o’clock</text>
<rect class="panel" x="88" y="210" width="1264" height="726" rx="24"/>
<circle cx="720" cy="570" r="260" class="ring"/>
<circle cx="720" cy="570" r="172" class="ring" opacity="0.5"/>
<circle cx="720.0" cy="350.0" r="34" class="nodeActive"/>
<circle cx="720.0" cy="350.0" r="44" fill="none" stroke="#b7ffd4" stroke-width="2.5"/>
<text class="text label" x="710.0" y="355.0">C</text>
<circle cx="830.0" cy="379.5" r="34" class="node"/>
<text class="text label" x="810.0" y="384.5">C♯</text>
<circle cx="910.5" cy="460.0" r="34" class="nodeActive"/>
<text class="text label" x="900.5" y="465.0">D</text>
<circle cx="940.0" cy="570.0" r="34" class="nodeActive"/>
<text class="text label" x="920.0" y="575.0">E♭</text>
<circle cx="910.5" cy="680.0" r="34" class="node"/>
<text class="text label" x="900.5" y="685.0">E</text>
<circle cx="830.0" cy="760.5" r="34" class="nodeActive"/>
<text class="text label" x="820.0" y="765.5">F</text>
<circle cx="720.0" cy="790.0" r="34" class="node"/>
<text class="text label" x="700.0" y="795.0">F♯</text>
<circle cx="610.0" cy="760.5" r="34" class="nodeActive"/>
<text class="text label" x="600.0" y="765.5">G</text>
<circle cx="529.5" cy="680.0" r="34" class="node"/>
<text class="text label" x="509.5" y="685.0">A♭</text>
<circle cx="500.0" cy="570.0" r="34" class="nodeActive"/>
<text class="text label" x="490.0" y="575.0">A</text>
<circle cx="529.5" cy="460.0" r="34" class="nodeActive"/>
<text class="text label" x="509.5" y="465.0">B♭</text>
<circle cx="610.0" cy="379.5" r="34" class="node"/>
<text class="text label" x="600.0" y="384.5">B</text>
<path class="line2" d="M720.0,350.0 A 220 220 0 0 1 910.5 680.0" stroke-dasharray="7 7"/>
<text class="muted small" x="1040" y="292">tap = include/exclude</text>
<text class="muted small" x="1040" y="314">long-press = tonic</text>
<text class="muted small" x="1040" y="336">rotate gesture = transpose</text>
</svg>